<?xml version="1.0" standalone="no"?>
<!DOCTYPE svg PUBLIC "-//W3C//DTD SVG 20010904//EN"
 "http://www.w3.org/TR/2001/REC-SVG-20010904/DTD/svg10.dtd">
<svg version="1.0" xmlns="http://www.w3.org/2000/svg"
 width="512.000000pt" height="512.000000pt" viewBox="0 0 512.000000 512.000000"
 preserveAspectRatio="xMidYMid meet">

<g transform="translate(0.000000,512.000000) scale(0.100000,-0.100000)"
fill="#000000" stroke="none">
<path d="M2400 5114 c-359 -31 -677 -116 -965 -258 -772 -382 -1294 -1109
-1411 -1966 -23 -169 -23 -491 0 -660 52 -379 192 -758 394 -1065 420 -639
1066 -1041 1842 -1146 122 -17 478 -17 600 0 294 40 579 124 824 245 771 379
1295 1108 1412 1966 23 169 23 491 0 660 -65 480 -259 926 -563 1295 -409 498
-983 817 -1637 910 -101 15 -411 26 -496 19z m1318 -1521 l-3 -248 -420 -5
-420 -5 -3 -1077 -2 -1078 -310 0 -310 0 -2 1078 -3 1077 -422 3 -423 2 0 250
0 250 1160 0 1160 0 -2 -247z"/>
</g>
</svg>
